<?xml version="1.0" encoding="UTF-8" standalone="no"?>
<svg
   xmlns:dc="http://purl.org/dc/elements/1.1/"
   xmlns:cc="http://creativecommons.org/ns#"
   xmlns:rdf="http://www.w3.org/1999/02/22-rdf-syntax-ns#"
   xmlns:svg="http://www.w3.org/2000/svg"
   xmlns="http://www.w3.org/2000/svg"
   xmlns:sodipodi="http://sodipodi.sourceforge.net/DTD/sodipodi-0.dtd"
   xmlns:inkscape="http://www.inkscape.org/namespaces/inkscape"
   sodipodi:docname="logo.svg"
   inkscape:version="1.0 (4035a4fb49, 2020-05-01)"
   id="svg8"
   version="1.1"
   viewBox="0 0 199.76042 50.54731"
   height="50.54731mm"
   width="199.76042mm">
  <defs
     id="defs2" />
  <sodipodi:namedview
     inkscape:window-maximized="1"
     inkscape:window-y="-9"
     inkscape:window-x="-9"
     inkscape:window-height="1001"
     inkscape:window-width="1920"
     showgrid="false"
     inkscape:document-rotation="0"
     inkscape:current-layer="layer1"
     inkscape:document-units="mm"
     inkscape:cy="32.563688"
     inkscape:cx="316.32975"
     inkscape:zoom="0.7"
     inkscape:pageshadow="2"
     inkscape:pageopacity="0.0"
     borderopacity="1.0"
     bordercolor="#666666"
     pagecolor="#ffffff"
     id="base" />
  <metadata
     id="metadata5">
    <rdf:RDF>
      <cc:Work
         rdf:about="">
        <dc:format>image/svg+xml</dc:format>
        <dc:type
           rdf:resource="http://purl.org/dc/dcmitype/StillImage" />
        <dc:title></dc:title>
      </cc:Work>
    </rdf:RDF>
  </metadata>
  <g
     transform="translate(-5.5751485,-43.26638)"
     id="layer1"
     inkscape:groupmode="layer"
     inkscape:label="Layer 1">
    <path
       id="path847"
       d="M 5.5751485,68.67811 V 43.5427 l 4.4317705,0.003 4.431771,0.003 11.182602,17.08788 11.182601,17.08787 -0.0701,7.66932 -0.0701,7.66933 -10.715625,-16.40521 -10.715625,-16.4052 -0.0681,16.78021 -0.0681,16.78021 H 10.33569 5.5751485 Z m 35.9833335,0 V 43.5427 h 18.388542 18.388542 l 0.0029,24.14323 c 0.0016,13.27877 0.07671,24.58971 0.166909,25.13541 l 0.163997,0.99219 h -4.797118 -4.797116 l -0.02813,-11.57552 c -0.01548,-6.36654 -0.04523,-11.81365 -0.06615,-12.10469 -0.0369,-0.51361 -0.255876,-0.53152 -7.446354,-0.60928 -4.074583,-0.0441 -8.122708,-0.008 -8.995833,0.08 l -1.5875,0.1601 0.07868,12.02469 0.07869,12.0247 H 46.3335 41.558461 Z M 69.075149,56.77186 V 51.4802 H 60.09993 51.124712 l -0.09256,5.09323 c -0.05091,2.80127 -0.05316,5.18252 -0.005,5.29166 0.04816,0.10914 4.128657,0.19844 9.067777,0.19844 h 8.980217 z M 163.5314,68.54582 V 43.27811 h 4.7625 4.7625 v 18.02655 18.02656 l 11.70782,-17.89118 11.70781,-17.89118 4.43177,-0.003 4.43177,-0.003 v 25.13541 25.13542 h -4.76054 -4.76054 l -0.0681,-16.78062 -0.0681,-16.78062 -10.96027,16.78062 -10.96027,16.78062 h -5.11317 -5.11317 z m -74.321818,10.09666 -6.376099,-14.37729 0.007,-10.2951 0.007,-10.2951 8.384548,18.85156 c 4.611502,10.36836 8.448106,18.85086 8.525788,18.84999 0.07768,-7.9e-4 3.948011,-8.576 8.600741,-19.05586 l 8.4595,-19.0543 4.63737,0.072 4.63738,0.072 0.0675,24.80469 0.0675,24.80469 h -4.76385 -4.76386 V 78.81163 c 0,-8.1989 -0.0985,-14.10181 -0.23293,-13.95677 -0.12811,0.13825 -3.00521,6.5319 -6.39354,14.20813 l -6.16061,13.95677 h -4.163699 -4.163696 z m 41.513488,-14.1977 v -3.70417 h 14.2875 14.2875 v 3.70417 3.70417 h -14.2875 -14.2875 z m 0,-17.4625 v -3.70417 h 14.2875 14.2875 v 3.70417 3.70417 h -14.2875 -14.2875 z"
       style="fill:#ffffff;stroke-width:0.264583;fill-opacity:1" />
  </g>
</svg>
